<svg width="28" height="28" viewBox="0 0 28 28" fill="none" xmlns="http://www.w3.org/2000/svg">
<path fill-rule="evenodd" clip-rule="evenodd" d="M25.9259 2H2.07407C2.03316 2 2 2.03316 2 2.07407V25.9259C2 25.9668 2.03316 26 2.07407 26H25.9259C25.9668 26 26 25.9668 26 25.9259V2.07407C26 2.03316 25.9668 2 25.9259 2ZM25.9259 0H2.07407C0.928595 0 0 0.928595 0 2.07407V25.9259C0 27.0714 0.928595 28 2.07407 28H25.9259C27.0714 28 28 27.0714 28 25.9259V2.07407C28 0.928595 27.0714 0 25.9259 0Z" fill="#C1C1C1"/>
<rect x="2" y="2" width="24" height="24" fill="white"/>
</svg>
